<?xml version="1.0" encoding="UTF-8" standalone="no"?>
<!-- Created with Inkscape (http://www.inkscape.org/) -->

<svg
   xmlns:dc="http://purl.org/dc/elements/1.1/"
   xmlns:cc="http://creativecommons.org/ns#"
   xmlns:rdf="http://www.w3.org/1999/02/22-rdf-syntax-ns#"
   xmlns:svg="http://www.w3.org/2000/svg"
   xmlns="http://www.w3.org/2000/svg"
   xmlns:sodipodi="http://sodipodi.sourceforge.net/DTD/sodipodi-0.dtd"
   xmlns:inkscape="http://www.inkscape.org/namespaces/inkscape"
   width="210mm"
   height="297mm"
   viewBox="0 0 744.09448819 1052.3622047"
   id="svg3442"
   version="1.1"
   inkscape:version="0.91 r13725"
   sodipodi:docname="avatar.svg">
  <defs
     id="defs3444" />
  <sodipodi:namedview
     id="base"
     pagecolor="#ffffff"
     bordercolor="#666666"
     borderopacity="1.0"
     inkscape:pageopacity="0.0"
     inkscape:pageshadow="2"
     inkscape:zoom="0.35"
     inkscape:cx="375"
     inkscape:cy="520"
     inkscape:document-units="px"
     inkscape:current-layer="layer1"
     showgrid="false"
     inkscape:window-width="1366"
     inkscape:window-height="715"
     inkscape:window-x="0"
     inkscape:window-y="0"
     inkscape:window-maximized="1" />
  <metadata
     id="metadata3447">
    <rdf:RDF>
      <cc:Work
         rdf:about="">
        <dc:format>image/svg+xml</dc:format>
        <dc:type
           rdf:resource="http://purl.org/dc/dcmitype/StillImage" />
        <dc:title></dc:title>
      </cc:Work>
    </rdf:RDF>
  </metadata>
  <g
     inkscape:label="Layer 1"
     inkscape:groupmode="layer"
     id="layer1">
    <path
       d="m 494.90979,873.20945 c -32.65281,17.38523 -67.41591,75.66316 -85.32248,61.33909 -17.88516,-14.31116 -18.94042,-32.71677 -14.72493,-43.95386 4.1942,-11.26294 -6.33123,-21.47966 18.93509,-41.92602 25.27697,-20.43344 32.08723,-32.56177 24.24312,-43.96677 -10.56672,-15.31862 -42.26402,-2.86741 -66.46986,-3.04823 l 0,0 c -0.30233,0 -0.6451,0 -0.94635,0 -0.43114,0 -0.91976,0 -1.32533,0 l 0,0 c -24.22173,0.18082 -55.90848,-12.27039 -66.48041,3.07406 -7.84422,11.37917 -1.04961,23.5075 24.21639,43.95386 25.29294,20.43344 14.74091,30.65016 18.96705,41.9131 4.21549,11.23709 3.16565,29.6427 -14.74092,43.95386 -17.91711,14.32407 -52.67499,-43.95386 -85.30639,-61.33909 -32.65813,-17.38521 -23.18786,-89.96138 -17.91189,-95.08912 5.25478,-5.11483 5.25478,-24.52788 47.37241,-12.25749 30.29884,8.80887 71.98535,-15.09905 95.01087,-39.48484 23.01614,24.38579 64.70266,48.29371 94.99617,39.48484 42.12828,-12.27039 42.12828,7.14266 47.40435,12.25749 5.24541,5.12774 14.74091,77.70391 -17.91722,95.08912 z M 681.34142,554.23077 c -6.33123,8.16304 -5.50494,30.12059 -8.41501,39.88526 -14.67971,49.23659 -34.76853,45.98169 -50.58587,55.20386 -15.78021,9.18344 -30.52238,35.76499 -37.90749,49.05577 -7.36113,13.30369 -9.46622,37.83157 -21.05221,29.64269 -11.59653,-8.17595 -26.64349,-19.42596 -38.98392,-25.54825 -16.60115,-8.2147 -83.29988,-37.19868 -113.75435,-34.7446 -17.98375,1.44661 -31.0573,9.3255 -40.2162,11.23711 -9.15752,-1.91161 -22.24576,-9.7905 -40.23611,-11.23711 -30.42253,-2.45408 -97.1532,26.5299 -113.74903,34.7446 -12.34042,6.12229 -27.38206,17.3723 -38.95869,25.57409 -11.58056,8.16304 -13.69096,-16.36484 -21.07606,-29.6427 -7.36113,-13.31661 -22.10737,-39.89816 -37.90353,-49.0816 -15.80669,-9.22217 -35.890211,-5.96727 -50.559255,-55.20386 -2.915395,-9.76467 -2.121059,-31.69639 -8.42035,-39.88526 -6.33121,-8.17596 -40.039156,-39.87233 -11.607177,110.42068 28.458506,150.28007 86.382942,184.03013 86.382942,184.03013 24.21778,58.27793 123.23655,129.83373 123.23655,129.83373 45.71965,52.87899 104.16965,45.16799 112.90668,45.16799 8.81027,0 67.16713,7.6722 112.89209,-45.16799 0,0 98.99355,-71.5558 123.2259,-129.84665 0,0 57.92446,-33.73714 86.35633,-184.01721 28.44264,-150.29301 -5.2653,-118.59664 -11.57524,-110.42068"
       style="fill:#181823;fill-opacity:1;fill-rule:nonzero;stroke:none"
       id="path60"
       inkscape:connector-curvature="0" />
    <path
       d="m 60.684235,516.3539 c 0,0 12.673592,-180.51693 27.050698,-214.01336 14.558197,-33.97084 32.432877,-90.26556 94.089087,-100.50354 61.64798,-10.23088 109.75827,-1.88331 122.20966,0 27.83251,4.24106 29.21509,6.52088 68.14112,1.8692 38.95072,-4.65878 46.50549,-12.85058 101.66855,-7.35633 55.14659,5.48713 99.51239,17.58721 127.64117,16.65971 28.10412,-0.9346 30.27671,-8.37588 37.83973,5.57919 7.57946,13.9551 35.68357,163.77224 40.02058,183.30653 4.32054,19.54137 8.64109,105.15522 9.73562,114.4586 1.06985,9.30339 32.74561,-66.99998 32.44934,-106.08272 -0.19753,-25.19136 -6.79764,-190.74781 -51.92881,-203.78246 0,0 -1.16861,-75.36171 -103.89879,-126.537423 C 474.73216,34.645048 465.95115,52.034029 433.83923,41.796064 407.2,33.313976 344.06248,22.261775 289.96927,35.282263 c 0,0 -33.51918,0 -52.99042,4.651702 0,0 -35.6918,2.789601 -48.65344,11.165484 0,0 -75.7206,13.034645 -86.54253,40.951896 0,0 -23.79178,15.810105 -29.198627,31.634365 0,0 -42.184969,34.42396 -35.691798,77.22379 0,0 -4.328797,35.36563 -10.805489,52.10322 0,0 -11.9,26.98975 23.791797,-10.23088 0,0 -13.89982,42.94853 -15.150698,65.13788 -1.777603,31.67686 -6.484948,186.09614 25.95617,208.43418"
       style="fill:#181823;fill-opacity:1;fill-rule:nonzero;stroke:none"
       id="path34"
       inkscape:connector-curvature="0" />
  </g>
</svg>
