<?xml version="1.0" encoding="utf-8"?>
<!-- Generator: Adobe Illustrator 16.0.0, SVG Export Plug-In . SVG Version: 6.00 Build 0)  -->
<!DOCTYPE svg PUBLIC "-//W3C//DTD SVG 1.1//EN" "http://www.w3.org/Graphics/SVG/1.1/DTD/svg11.dtd">
<svg version="1.1" id="Layer_1" xmlns="http://www.w3.org/2000/svg" xmlns:xlink="http://www.w3.org/1999/xlink" x="0px" y="0px"
	 width="606.563px" height="600.148px" viewBox="3.93 95.885 606.563 600.148" enable-background="new 3.93 95.885 606.563 600.148"
	 xml:space="preserve">
<path d="M4.158,465.261c0.001-56.783,0.515-113.574-0.224-170.347c-0.351-26.976,18.798-44.541,43.929-43.78
	c29.063,0.879,58.172,0.209,87.261,0.2c9.831-0.002,11.854-3.276,7.441-11.98c-19.522-38.51-38.983-77.05-58.616-115.504
	c-3.766-7.375-4.667-14.383,0.677-21.216c8.309-10.625,23.104-8.418,29.747,4.638c9.474,18.618,18.624,37.4,27.914,56.113
	c10.883,21.917,21.674,43.881,32.772,65.688c1.353,2.658,4.394,6.232,6.596,6.193c2.361-0.041,5.505-3.422,6.851-6.082
	c20.47-40.475,40.688-81.076,60.993-121.635c4.987-9.964,13.883-13.898,23.022-10.304c10.031,3.947,13.488,14.516,8.019,25.481
	c-11.991,24.035-24.148,47.985-36.23,71.975c-7.427,14.749-14.844,29.503-22.249,44.262c-4.615,9.197-2.71,12.373,7.433,12.373
	c111.774,0.004,223.551,0.324,335.322-0.214c29.321-0.141,45.736,24.934,45.677,45.663c-0.324,113.568-0.19,227.137-0.123,340.706
	c0.009,17.539-6.684,31.159-22.898,38.582c-5.576,2.554-12.269,3.378-18.506,3.632c-13.128,0.536-26.292,0.163-39.442,0.185
	c-8.056,0.015-9.377,1.071-10.209,8.942c-0.511,4.825-2.954,7.177-7.747,7.179c-13.149,0.003-26.3-0.048-39.45,0.024
	c-5.146,0.029-7.646-2.458-8.153-7.464c-0.755-7.399-2.158-8.682-9.784-8.683c-98.028-0.025-196.054-0.024-294.08-0.002
	c-7.661,0.003-8.985,1.225-9.672,8.762c-0.435,4.758-2.818,7.327-7.633,7.342c-13.35,0.039-26.699,0.025-40.048,0.013
	c-4.823-0.005-7.188-2.438-7.622-7.269c-0.673-7.484-2.214-8.813-9.747-8.843c-13.349-0.053-26.699,0.066-40.048-0.043
	c-24.95-0.202-41.101-16.284-41.143-41.244C4.092,580.821,4.156,523.041,4.158,465.261z M275.769,607.573
	c15.738,0,31.477-0.002,47.214,0c45.421,0.001,90.842,0.03,136.264-0.014c11.269-0.012,19.667-5.904,21.816-15.735
	c0.778-3.565-0.002-7.464-0.004-11.211c-0.016-30.281-0.019-60.562-0.021-90.843c-0.004-47.811-0.041-95.622,0.031-143.434
	c0.013-8.313-2.094-15.766-9.654-19.843c-4.151-2.239-9.388-3.44-14.137-3.449c-121.122-0.187-242.244-0.158-363.366-0.156
	c-16.435,0-24.436,8.076-24.438,24.674c-0.011,78.489-0.015,156.98,0.001,235.471c0.003,16.447,8.139,24.538,24.611,24.541
	C154.647,607.584,215.208,607.579,275.769,607.573z M512.632,503.691c-0.017,17.207,13.512,30.889,30.496,30.841
	c16.346-0.045,30.634-14.641,30.598-31.257c-0.035-16.562-13.81-29.914-30.811-29.866
	C525.971,473.456,512.649,486.775,512.632,503.691z M512.631,377.788c-0.096,17.162,13.388,30.861,30.417,30.903
	c16.292,0.039,30.623-14.526,30.66-31.163c0.037-16.446-13.973-30.166-30.704-30.074
	C526.159,347.546,512.725,360.963,512.631,377.788z"/>
</svg>
