<svg id="Layer_1" data-name="Layer 1" xmlns="http://www.w3.org/2000/svg" viewBox="0 0 125.5 123"><title>Artboard 1</title><path d="M72.3,120.69c-13-10.63-25.09-20.79-37.51-30.57a16.79,16.79,0,0,0-8.87-3.2c-7.45-.45-14.95-.14-22.84-.14V37.24c7.55,0,15-.18,22.43.08a13.64,13.64,0,0,0,9.88-3.61C47.1,23.84,59,14.21,70.87,4.5a7.35,7.35,0,0,1,1.43-.62Z"/><path d="M102.92,57.92c4.51,4.58,13.33,13.31,13.33,13.31l7.7,7.23-8.82,8.83L73.85,45.8l8.91-8.5,5.3,5.54S96.48,51.52,102.92,57.92Z"/><path d="M94.73,58.3c4.54-4.55,13.2-13.43,13.2-13.43l7.17-7.77,8.9,8.75L82.85,87.47l-8.57-8.85,5.5-5.34S88.38,64.79,94.73,58.3Z"/></svg>