<?xml version="1.0" encoding="utf-8"?>
<!-- Generator: Adobe Illustrator 16.0.0, SVG Export Plug-In . SVG Version: 6.00 Build 0)  -->
<!DOCTYPE svg PUBLIC "-//W3C//DTD SVG 1.1//EN" "http://www.w3.org/Graphics/SVG/1.1/DTD/svg11.dtd">
<svg version="1.1" id="Layer_1" xmlns="http://www.w3.org/2000/svg" xmlns:xlink="http://www.w3.org/1999/xlink" x="0px" y="0px"
	 width="896px" height="1024px" viewBox="0 0 896 1024" enable-background="new 0 0 896 1024" xml:space="preserve">
<path d="M831,127H63c-35.351,0-64,28.65-64,64v640c0,35.35,28.649,64,64,64h768c35.35,0,64-28.65,64-64V191
	C895,155.65,866.35,127,831,127z M669.678,677.424l-45.254,45.254L448,546.254L271.576,722.678l-45.254-45.254L402.746,501
	L226.323,324.577l45.255-45.255L448,455.746l176.423-176.423l45.255,45.255L493.254,501L669.678,677.424z"/>
</svg>
