<svg id="Layer_1" data-name="Layer 1" xmlns="http://www.w3.org/2000/svg" viewBox="0 0 125.5 123"><title>Artboard 1</title><path d="M72.3,120.69c-13-10.63-25.09-20.79-37.51-30.57a16.79,16.79,0,0,0-8.87-3.2c-7.45-.45-14.95-.14-22.84-.14V37.24c7.55,0,15-.18,22.43.08a13.64,13.64,0,0,0,9.88-3.61C47.1,23.84,59,14.21,70.87,4.5a7.35,7.35,0,0,1,1.43-.62Z"/><path d="M121.71,61.71a61.59,61.59,0,0,1-16.89,42.52c-3.52,3.81-7,4.33-10,1.7s-2.83-6,.64-10c18.45-21.1,18.49-47.78.11-68.67-3.52-4-3.8-7.26-.87-10s6.56-2.22,10,1.49A61.92,61.92,0,0,1,121.71,61.71Z"/><path d="M88.82,60.2c.06-6.42-2.7-13-7.68-18.74-3.38-3.91-3.54-7.46-.63-10s6.55-1.89,10,1.77C105,48.83,105,74.4,90.38,90c-3.4,3.62-7.25,4.3-9.95,1.52-3.16-3.27-2.36-6.43.42-9.68C86.78,74.84,88.85,69.28,88.82,60.2Z"/></svg>